# xmcd
#
# Track frame offsets: 
#        150
#        5025
#        26365
#        46153
#        61833
#        85821
#        105970
#        140150
#        157495
#
# Disc length: 2813 seconds
#
# Revision: 3
# Processed by: cddbd v1.5.2PL0 Copyright (c) Steve Scherf et al.
# Submitted via: ExactAudioCopyFreeDBPlugin 1.0
#
DISCID=6f0afb09
DTITLE=Canned Heat - Goin' Up The Country - Live
DYEAR=2001
DGENRE=Blues
TTITLE0=Intro
TTITLE1=Chicken Shack
TTITLE2=Goin' Up The Country
TTITLE3=Bullfrog Blues
TTITLE4=Don't Know Where She Went
TTITLE5=On The Road Again
TTITLE6=Shake N' Boogie
TTITLE7=Stand Up For What You Are
TTITLE8=Human Condition
EXTD=Veröffentlich bei Disky: 12.12.2001 YEAR: 2001
EXTT0=
EXTT1=
EXTT2=
EXTT3=
EXTT4=
EXTT5=
EXTT6=
EXTT7=
EXTT8=
PLAYORDER=
